HIERARCHY
ROOT Hips
{
	OFFSET 0.000000 83.214638 0.000000
	CHANNELS 6 Xposition Yposition Zposition Xrotation Yrotation Zrotation
	JOINT Pelvis
	{
		OFFSET 0.000000 0.000000 0.000000
		CHANNELS 3 Xrotation Yrotation Zrotation
		JOINT LeftUpLeg
		{
			OFFSET 8.479700 -4.795502 -0.379100
			CHANNELS 3 Xrotation Yrotation Zrotation
			JOINT LeftLeg
			{
				OFFSET 0.024144 -32.555107 0.112900
				CHANNELS 3 Xrotation Yrotation Zrotation
				JOINT LeftFoot
				{
					OFFSET -0.024144 -32.638630 -3.012600
					CHANNELS 3 Xrotation Yrotation Zrotation
					JOINT LeftToeBase
					{
						OFFSET 0.970200 -13.225400 11.864200
						CHANNELS 3 Xrotation Yrotation Zrotation
						End Site
						{
							OFFSET 0.000000 12.319262 0.000000
						}
					}
					JOINT LFootTongue
					{
						OFFSET 1.142400 -1.059800 6.665200
						CHANNELS 3 Xrotation Yrotation Zrotation
						End Site
						{
							OFFSET 0.000000 12.319262 0.000000
						}
					}
				}
				JOINT LeftPantLeg
				{
					OFFSET 0.918482 -16.533964 -2.284700
					CHANNELS 3 Xrotation Yrotation Zrotation
					End Site
					{
						OFFSET 0.350399 24.744368 0.000000
					}
				}
			}
		}
		JOINT RightUpLeg
		{
			OFFSET -8.479700 -4.795502 -0.379100
			CHANNELS 3 Xrotation Yrotation Zrotation
			JOINT RightLeg
			{
				OFFSET -0.023144 -32.555092 0.112900
				CHANNELS 3 Xrotation Yrotation Zrotation
				JOINT RightFoot
				{
					OFFSET 0.023144 -32.638641 -3.012700
					CHANNELS 3 Xrotation Yrotation Zrotation
					JOINT RightToeBase
					{
						OFFSET -0.970200 -13.225400 11.864200
						CHANNELS 3 Xrotation Yrotation Zrotation
						End Site
						{
							OFFSET 0.000000 12.319244 0.000000
						}
					}
					JOINT RFootTongue
					{
						OFFSET -1.142200 -1.059800 6.665200
						CHANNELS 3 Xrotation Yrotation Zrotation
						End Site
						{
							OFFSET 0.000000 12.319243 0.000000
						}
					}
				}
				JOINT RightPantLeg
				{
					OFFSET -0.919482 -16.533978 -2.284800
					CHANNELS 3 Xrotation Yrotation Zrotation
					End Site
					{
						OFFSET -0.350400 24.744419 0.000000
					}
				}
			}
		}
	}
	JOINT Spine
	{
		OFFSET 0.000000 7.722000 1.166200
		CHANNELS 3 Xrotation Yrotation Zrotation
		JOINT Spine1
		{
			OFFSET 0.000000 12.024101 0.248800
			CHANNELS 3 Xrotation Yrotation Zrotation
			JOINT Spine2
			{
				OFFSET 0.000000 11.502998 -0.491200
				CHANNELS 3 Xrotation Yrotation Zrotation
				JOINT Neck
				{
					OFFSET 0.000000 18.430702 -3.123100
					CHANNELS 3 Xrotation Yrotation Zrotation
					JOINT Head
					{
						OFFSET 0.000000 9.051102 1.034000
						CHANNELS 3 Xrotation Yrotation Zrotation
						JOINT HairB
						{
							OFFSET 0.208400 24.786102 24.822300
							CHANNELS 3 Xrotation Yrotation Zrotation
							End Site
							{
								OFFSET 0.000000 32.263779 0.000000
							}
						}
						JOINT HairA
						{
							OFFSET -7.081100 24.428299 23.196600
							CHANNELS 3 Xrotation Yrotation Zrotation
							End Site
							{
								OFFSET 0.000000 32.263779 0.000000
							}
						}
						JOINT Hat
						{
							OFFSET 16.728800 15.048294 -15.439601
							CHANNELS 3 Xrotation Yrotation Zrotation
							End Site
							{
								OFFSET 0.000000 32.263779 0.000000
							}
						}
					}
				}
				JOINT LeftShoulder
				{
					OFFSET 6.197800 13.665199 -4.064700
					CHANNELS 3 Xrotation Yrotation Zrotation
					JOINT LeftArm
					{
						OFFSET 7.778100 -0.187103 -1.709300
						CHANNELS 3 Xrotation Yrotation Zrotation
						JOINT LeftForeArm
						{
							OFFSET 22.049376 0.000000 0.000000
							CHANNELS 3 Xrotation Yrotation Zrotation
							JOINT LeftHand
							{
								OFFSET 23.009392 0.000000 0.000000
								CHANNELS 3 Xrotation Yrotation Zrotation
								JOINT LeftHandThumb1
								{
									OFFSET 3.507191 -2.063065 3.133727
									CHANNELS 3 Xrotation Yrotation Zrotation
									JOINT LeftHandThumb2
									{
										OFFSET 3.101337 -1.790558 1.790558
										CHANNELS 3 Xrotation Yrotation Zrotation
										JOINT LeftHandThumb3
										{
											OFFSET 3.058640 -1.765907 1.765906
											CHANNELS 3 Xrotation Yrotation Zrotation
											End Site
											{
												OFFSET -0.415260 3.926476 -0.049563
											}
										}
									}
								}
								JOINT LeftHandIndex1
								{
									OFFSET 11.334419 -0.901459 3.706815
									CHANNELS 3 Xrotation Yrotation Zrotation
									JOINT LeftHandIndex2
									{
										OFFSET 3.283112 0.000000 0.000000
										CHANNELS 3 Xrotation Yrotation Zrotation
										JOINT LeftHandIndex3
										{
											OFFSET 3.323853 0.000000 0.000000
											CHANNELS 3 Xrotation Yrotation Zrotation
											End Site
											{
												OFFSET -1.135597 3.097809 0.402452
											}
										}
									}
								}
								JOINT LeftHandMiddle1
								{
									OFFSET 11.335861 0.000000 0.000000
									CHANNELS 3 Xrotation Yrotation Zrotation
									JOINT LeftHandMiddle2
									{
										OFFSET 3.410492 0.000000 0.000000
										CHANNELS 3 Xrotation Yrotation Zrotation
										JOINT LeftHandMiddle3
										{
											OFFSET 3.312172 0.000000 0.000000
											CHANNELS 3 Xrotation Yrotation Zrotation
											End Site
											{
												OFFSET -1.150200 3.080154 0.400270
											}
										}
									}
								}
								JOINT LeftHandRing1
								{
									OFFSET 11.514786 -0.013176 -3.003090
									CHANNELS 3 Xrotation Yrotation Zrotation
									JOINT LeftHandRing2
									{
										OFFSET 3.053307 0.000000 0.000000
										CHANNELS 3 Xrotation Yrotation Zrotation
										JOINT LeftHandRing3
										{
											OFFSET 3.295807 0.000000 0.000000
											CHANNELS 3 Xrotation Yrotation Zrotation
											End Site
											{
												OFFSET -1.281006 3.013344 0.375733
											}
										}
									}
								}
								JOINT LeftHandPinky1
								{
									OFFSET 10.518692 -0.960396 -5.730441
									CHANNELS 3 Xrotation Yrotation Zrotation
									JOINT LeftHandPinky2
									{
										OFFSET 2.861649 0.000000 0.000000
										CHANNELS 3 Xrotation Yrotation Zrotation
										JOINT LeftHandPinky3
										{
											OFFSET 2.863380 0.000000 0.000000
											CHANNELS 3 Xrotation Yrotation Zrotation
											End Site
											{
												OFFSET -0.843597 2.711159 0.369971
											}
										}
									}
								}
							}
							JOINT LSleeve
							{
								OFFSET 6.676277 -0.344902 -1.011730
								CHANNELS 3 Xrotation Yrotation Zrotation
								End Site
								{
									OFFSET 0.000000 14.885353 0.000000
								}
							}
						}
					}
				}
				JOINT RightShoulder
				{
					OFFSET -6.197800 13.665199 -4.064700
					CHANNELS 3 Xrotation Yrotation Zrotation
					JOINT RightArm
					{
						OFFSET -7.778100 -0.187103 -1.709300
						CHANNELS 3 Xrotation Yrotation Zrotation
						JOINT RightForeArm
						{
							OFFSET -22.049376 0.000000 0.000000
							CHANNELS 3 Xrotation Yrotation Zrotation
							JOINT RightHand
							{
								OFFSET -23.009392 0.000000 0.000000
								CHANNELS 3 Xrotation Yrotation Zrotation
								JOINT RightHandThumb1
								{
									OFFSET -3.507191 -2.063065 3.133727
									CHANNELS 3 Xrotation Yrotation Zrotation
									JOINT RightHandThumb2
									{
										OFFSET -3.101337 -1.790558 1.790558
										CHANNELS 3 Xrotation Yrotation Zrotation
										JOINT RightHandThumb3
										{
											OFFSET -3.058640 -1.765907 1.765906
											CHANNELS 3 Xrotation Yrotation Zrotation
											End Site
											{
												OFFSET 0.415260 3.926476 -0.049563
											}
										}
									}
								}
								JOINT RightHandIndex1
								{
									OFFSET -11.334419 -0.901459 3.706815
									CHANNELS 3 Xrotation Yrotation Zrotation
									JOINT RightHandIndex2
									{
										OFFSET -3.283112 0.000000 0.000000
										CHANNELS 3 Xrotation Yrotation Zrotation
										JOINT RightHandIndex3
										{
											OFFSET -3.323853 0.000000 0.000000
											CHANNELS 3 Xrotation Yrotation Zrotation
											End Site
											{
												OFFSET 1.135597 3.097809 0.402452
											}
										}
									}
								}
								JOINT RightHandMiddle1
								{
									OFFSET -11.335861 0.000000 0.000000
									CHANNELS 3 Xrotation Yrotation Zrotation
									JOINT RightHandMiddle2
									{
										OFFSET -3.410492 0.000000 0.000000
										CHANNELS 3 Xrotation Yrotation Zrotation
										JOINT RightHandMiddle3
										{
											OFFSET -3.312172 0.000000 0.000000
											CHANNELS 3 Xrotation Yrotation Zrotation
											End Site
											{
												OFFSET 1.150200 3.080154 0.400270
											}
										}
									}
								}
								JOINT RightHandRing1
								{
									OFFSET -11.514786 -0.013176 -3.003090
									CHANNELS 3 Xrotation Yrotation Zrotation
									JOINT RightHandRing2
									{
										OFFSET -3.053307 0.000000 0.000000
										CHANNELS 3 Xrotation Yrotation Zrotation
										JOINT RightHandRing3
										{
											OFFSET -3.295807 0.000000 0.000000
											CHANNELS 3 Xrotation Yrotation Zrotation
											End Site
											{
												OFFSET 1.281006 3.013344 0.375733
											}
										}
									}
								}
								JOINT RightHandPinky1
								{
									OFFSET -10.518692 -0.960396 -5.730441
									CHANNELS 3 Xrotation Yrotation Zrotation
									JOINT RightHandPinky2
									{
										OFFSET -2.861649 0.000000 0.000000
										CHANNELS 3 Xrotation Yrotation Zrotation
										JOINT RightHandPinky3
										{
											OFFSET -2.863380 0.000000 0.000000
											CHANNELS 3 Xrotation Yrotation Zrotation
											End Site
											{
												OFFSET 0.843597 2.711159 0.369971
											}
										}
									}
								}
							}
							JOINT RSleeve
							{
								OFFSET -6.676277 -0.344902 -1.011730
								CHANNELS 3 Xrotation Yrotation Zrotation
								End Site
								{
									OFFSET 0.000000 14.885353 0.000000
								}
							}
						}
					}
				}
				JOINT Backpack
				{
					OFFSET 0.000000 -2.471497 36.677502
					CHANNELS 3 Xrotation Yrotation Zrotation
					End Site
					{
						OFFSET 0.000000 20.427315 0.000000
					}
				}
				JOINT Hood
				{
					OFFSET 0.000000 18.754097 -10.431000
					CHANNELS 3 Xrotation Yrotation Zrotation
					JOINT Hood1
					{
						OFFSET 0.000000 -5.011002 -7.685901
						CHANNELS 3 Xrotation Yrotation Zrotation
						End Site
						{
							OFFSET 0.000000 9.175140 0.000000
						}
					}
				}
				JOINT LHoodieString
				{
					OFFSET 5.250500 16.397697 3.089900
					CHANNELS 3 Xrotation Yrotation Zrotation
					JOINT LHoodieString1
					{
						OFFSET 0.257700 -6.364304 3.694600
						CHANNELS 3 Xrotation Yrotation Zrotation
						JOINT LHoodieString2
						{
							OFFSET 0.000000 -9.643799 2.679100
							CHANNELS 3 Xrotation Yrotation Zrotation
							End Site
							{
								OFFSET 0.000000 10.009018 0.000000
							}
						}
					}
				}
				JOINT RHoodieString
				{
					OFFSET -5.250500 16.397697 3.089900
					CHANNELS 3 Xrotation Yrotation Zrotation
					JOINT RHoodieString1
					{
						OFFSET -0.257700 -6.364304 3.694600
						CHANNELS 3 Xrotation Yrotation Zrotation
						JOINT RHoodieString2
						{
							OFFSET 0.000000 -9.643799 2.679100
							CHANNELS 3 Xrotation Yrotation Zrotation
							End Site
							{
								OFFSET 0.000000 10.009018 0.000000
							}
						}
					}
				}
			}
			JOINT LBackpack_Strap
			{
				OFFSET 15.223200 -7.719803 -6.610900
				CHANNELS 3 Xrotation Yrotation Zrotation
				End Site
				{
					OFFSET 0.000000 16.040596 0.000000
				}
			}
			JOINT RBackpack_Strap
			{
				OFFSET -15.223000 -7.719803 -6.610900
				CHANNELS 3 Xrotation Yrotation Zrotation
				End Site
				{
					OFFSET 0.000000 16.040596 0.000000
				}
			}
		}
	}
	JOINT BoyFacialAnim_Joint
	{
		OFFSET 1.000000 -82.208099 -1.550900
		CHANNELS 3 Xrotation Yrotation Zrotation
		End Site
		{
			OFFSET 0.000000 30.012791 0.000000
		}
	}
}
MOTION
Frames: 4
Frame Time: 0.016667
0.829090 74.989304 -0.424576 9.545351 -61.619344 10.152427 0.000001 -0.000000 -0.000000 -36.690605 11.888579 23.486056 36.108007 -6.745320 1.195824 -5.486797 -2.268785 -16.038852 -0.000000 0.000003 -0.000000 -0.000000 0.000003 -0.000000 0.000001 0.000001 0.000000 -31.263770 -19.564163 -32.362819 35.165673 3.482097 -4.082690 -11.011009 0.859196 22.483869 -0.000000 -0.000000 -0.000000 -0.000000 -0.000000 -0.000000 0.000000 -0.000000 -0.000001 15.063718 -0.324094 -4.291271 5.872399 0.563938 -2.798213 5.868719 0.648184 -2.860167 -3.632888 1.437159 3.747492 -20.005957 54.836771 2.407373 0.000000 0.000000 -0.000001 0.000000 0.000000 -0.000001 0.000000 0.000000 -0.000001 1.828094 -3.192673 -12.271577 -39.387399 26.350487 -34.911105 0.429359 -46.808451 0.416179 -10.315073 -0.130711 0.363008 40.109951 -15.297156 -0.360499 5.639834 28.097920 11.338831 -0.000000 -0.000000 0.000001 6.882266 2.840079 -61.140391 8.248005 7.640064 -89.897878 -0.000001 -0.000002 -0.000002 -2.345499 4.688865 -62.655204 8.754178 9.897071 -87.051342 0.000003 -0.000001 -0.000000 -9.042446 10.045686 -60.766171 8.524087 9.508837 -66.893035 0.000000 -0.000003 0.000001 -17.946891 14.755003 -51.485840 8.868457 8.667058 -84.811989 0.000004 0.000000 0.000001 -0.000000 0.000002 0.000000 0.632600 7.257362 8.700385 7.936001 -9.680156 53.429903 -22.867424 36.194685 17.955440 -27.369937 10.432887 -17.813541 -2.346173 -6.100558 10.731436 2.364072 -23.806285 -8.771057 0.000000 0.000000 0.000001 -0.054747 0.532104 0.738726 0.019780 -0.087299 5.078503 -0.000000 0.000000 0.000007 0.348257 -5.918521 2.583826 1.432605 -4.204220 24.052098 -0.000001 0.000001 0.000000 1.205838 -11.756070 4.154781 1.794852 -3.771855 26.865400 -0.000001 0.000002 0.000001 2.126233 -19.166861 11.319989 3.354771 -2.122232 18.828545 0.000001 0.000001 0.000002 0.000001 -0.000001 -0.000001 0.000002 0.000001 -0.000002 0.000002 0.000001 -0.000002 0.000002 0.000001 -0.000002 0.000002 0.000001 -0.000002 0.000002 0.000001 -0.000001 0.000001 -0.000000 0.000001 0.000002 0.000001 -0.000002 0.000002 0.000001 -0.000001 0.000001 -0.000000 0.000001 0.000001 0.000001 -0.000001 0.000001 0.000001 -0.000001 0.000001 -0.000000 -0.000000 
0.713125 75.251701 0.557259 9.350304 -61.890216 9.862321 0.000000 -0.000001 0.000000 -36.107563 12.372451 23.124878 36.572012 -6.568282 1.211166 -6.449383 -2.291846 -15.448940 -0.000000 -0.000000 0.000000 -0.000000 -0.000000 0.000000 0.000000 0.000004 0.000002 -29.910112 -18.041482 -31.747122 34.418594 1.461582 -3.793544 -8.840068 0.395857 22.488043 0.000000 0.000000 -0.000000 0.000000 0.000000 -0.000000 -0.000001 -0.000000 0.000001 15.060121 -0.354109 -4.290406 5.808922 0.512828 -2.771125 5.805198 0.597261 -2.833456 -3.638488 1.536344 3.725356 -19.889617 54.758115 2.275294 0.000000 0.000000 0.000000 0.000000 0.000000 0.000000 0.000000 0.000000 0.000000 1.811784 -3.211871 -12.344132 -39.504127 26.319832 -34.529314 1.101675 -46.417921 0.952193 -9.885026 0.827916 1.334652 40.109951 -15.297155 -0.360502 5.639836 28.097916 11.338835 0.000000 -0.000001 0.000004 6.883857 2.854645 -61.141948 8.248001 7.640059 -89.897878 -0.000004 0.000001 -0.000002 -2.345671 4.688772 -62.645266 8.754106 9.897076 -87.051321 -0.000001 0.000001 -0.000001 -9.042441 10.045689 -60.766171 8.523995 9.508683 -66.885816 -0.000003 0.000003 -0.000002 -17.946884 14.755000 -51.485840 8.868264 8.667116 -84.803840 -0.000004 0.000001 -0.000002 -0.000002 0.000001 0.000002 0.692441 7.427223 8.935631 5.481156 -8.784176 52.938768 -21.606670 32.865627 15.936039 -24.516508 8.994968 -17.062808 -4.116511 -6.706643 9.307951 1.886958 -23.619573 -9.140356 0.000001 -0.000001 0.000008 -0.010634 0.533235 -1.327960 0.017480 -0.087290 5.720672 -0.000000 0.000003 0.000007 0.409157 -5.946819 2.284645 1.424247 -4.181323 21.464428 0.000001 -0.000001 -0.000000 0.746833 -11.971076 3.731582 1.819257 -3.840933 25.204790 0.000000 -0.000000 0.000004 1.682379 -18.956606 9.983752 3.331146 -2.133636 16.242128 -0.000000 0.000000 0.000000 0.000001 0.000000 -0.000003 0.000002 0.000001 0.000000 0.000002 0.000001 0.000000 0.000002 0.000001 0.000000 0.000002 0.000001 0.000000 0.000002 0.000001 0.000001 0.000003 -0.000001 0.000001 0.000002 0.000001 0.000000 0.000002 0.000001 0.000001 0.000003 -0.000001 0.000001 0.000001 0.000000 -0.000000 0.000001 0.000000 -0.000000 0.000000 -0.000001 0.000000 
0.596268 75.514015 1.540654 9.148367 -62.162747 9.567703 -0.000000 -0.000001 0.000000 -35.464582 12.853934 22.732283 36.944814 -6.352569 1.229777 -7.374034 -2.329813 -14.878298 -0.000000 -0.000000 0.000000 -0.000000 -0.000000 0.000000 -0.000000 0.000003 -0.000001 -28.626790 -16.506516 -31.207647 33.748067 -0.588427 -3.502933 -6.607421 -0.080055 22.425324 -0.000000 -0.000000 0.000000 -0.000000 -0.000000 0.000000 -0.000001 -0.000000 -0.000002 15.048515 -0.431295 -4.260182 5.633810 0.369643 -2.696470 5.629856 0.454782 -2.759861 -3.655647 1.814228 3.662546 -19.581871 54.532353 1.920065 -0.000000 0.000000 0.000000 -0.000000 0.000000 0.000000 -0.000000 0.000000 0.000000 1.851089 -3.205579 -12.196509 -39.716614 26.246986 -34.186500 2.759049 -45.717437 2.309581 -9.601691 1.846982 2.522831 40.109938 -15.297155 -0.360500 5.639837 28.097920 11.338829 0.000001 -0.000001 0.000000 6.885312 2.867596 -61.143252 8.248003 7.640067 -89.897884 -0.000003 0.000002 -0.000005 -2.345732 4.688748 -62.636373 8.754124 9.897092 -87.051239 -0.000001 -0.000001 -0.000000 -9.042448 10.045685 -60.766171 8.523938 9.508562 -66.879307 0.000001 0.000001 -0.000000 -17.946894 14.754991 -51.485840 8.868074 8.667147 -84.796682 -0.000001 -0.000000 0.000001 0.000001 0.000000 0.000000 0.772925 7.546831 9.119209 2.943618 -7.711108 52.563469 -20.404009 29.266117 13.879018 -21.562924 7.631780 -16.206056 -6.237932 -7.289043 7.642145 1.335656 -23.383231 -9.554171 0.000001 0.000001 0.000001 0.036206 0.531758 -3.691436 0.018936 -0.086972 6.453128 0.000001 -0.000001 -0.000000 0.478639 -5.980250 1.942308 1.420336 -4.160111 18.500768 -0.000001 0.000001 0.000005 0.223203 -12.207968 3.248202 1.839687 -3.913900 23.324293 -0.000000 0.000001 0.000001 1.189606 -18.704688 8.461778 3.307098 -2.146763 13.290743 0.000001 0.000001 -0.000001 -0.000001 0.000000 -0.000002 0.000002 -0.000001 0.000002 0.000002 -0.000001 0.000002 0.000002 -0.000001 0.000002 0.000002 -0.000001 0.000002 0.000002 -0.000001 0.000003 0.000001 -0.000001 0.000002 0.000002 -0.000001 0.000002 0.000002 -0.000001 0.000003 0.000001 -0.000001 0.000002 0.000000 0.000001 -0.000000 0.000000 0.000001 -0.000000 -0.000000 -0.000001 0.000000 
0.478242 75.767082 2.520708 8.951424 -62.428967 9.274979 0.000000 0.000001 -0.000000 -34.794206 13.317096 22.318721 37.264952 -6.106715 1.250773 -8.273334 -2.379747 -14.328212 -0.000000 0.000002 -0.000000 -0.000000 0.000002 -0.000000 -0.000000 0.000000 0.000000 -27.420520 -14.856034 -30.675773 33.246386 -2.652523 -3.205796 -4.353495 -0.556632 22.249671 0.000000 -0.000000 0.000000 0.000000 -0.000000 0.000000 -0.000000 -0.000000 -0.000002 15.027318 -0.546822 -4.204729 5.371689 0.150689 -2.585288 5.367417 0.236854 -2.650279 -3.683364 2.240244 3.564176 -19.144231 54.178307 1.405929 0.000001 -0.000000 0.000000 0.000001 -0.000000 0.000000 0.000001 -0.000000 0.000000 1.843149 -3.270750 -12.215998 -40.079045 26.019758 -33.554213 4.817974 -44.880463 3.995175 -9.298827 2.592857 3.380239 40.109951 -15.297155 -0.360502 5.639834 28.097916 11.338838 -0.000001 -0.000004 0.000000 6.886541 2.878938 -61.144345 8.248002 7.640067 -89.897878 0.000002 -0.000002 -0.000002 -2.345658 4.688662 -62.628463 8.754132 9.897086 -87.051150 -0.000001 -0.000001 -0.000003 -9.042440 10.045688 -60.766164 8.523891 9.508410 -66.873624 -0.000003 0.000002 -0.000000 -17.946886 14.754998 -51.485836 8.867883 8.667216 -84.790317 -0.000002 0.000002 -0.000002 0.000001 -0.000001 0.000002 0.851987 7.665280 9.321644 0.526170 -6.652021 52.259068 -19.353578 25.785878 11.962589 -18.611743 6.402531 -15.306782 -8.268323 -7.739946 6.081483 0.815493 -23.164122 -9.941010 0.000001 0.000000 -0.000002 0.081621 0.527674 -5.928367 0.019952 -0.086706 7.147211 0.000000 0.000002 0.000004 0.550270 -6.015970 1.586695 1.422002 -4.150006 15.428269 -0.000000 0.000001 0.000002 -0.337122 -12.451478 2.730652 1.855721 -3.992474 21.326388 0.000000 -0.000001 -0.000001 0.689175 -18.427454 6.871378 3.285324 -2.163379 10.191934 0.000002 0.000001 0.000000 -0.000002 0.000002 0.000002 -0.000000 0.000002 -0.000000 -0.000000 0.000002 -0.000000 -0.000000 0.000002 -0.000000 -0.000000 0.000002 -0.000000 -0.000000 0.000002 0.000000 -0.000001 -0.000002 0.000001 -0.000000 0.000002 -0.000000 -0.000000 0.000002 0.000000 -0.000001 -0.000002 0.000001 0.000002 -0.000001 0.000000 0.000002 -0.000001 0.000000 0.000000 0.000001 -0.000000 
